<?xml version="1.0" encoding="UTF-8" standalone="no"?>
<svg
   width="171.97917mm"
   height="171.97917mm"
   viewBox="0 0 171.97917 171.97917"
   version="1.1"
   id="svg8"
   xmlns="http://www.w3.org/2000/svg"
   xmlns:svg="http://www.w3.org/2000/svg"
   xmlns:rdf="http://www.w3.org/1999/02/22-rdf-syntax-ns#"
   xmlns:cc="http://creativecommons.org/ns#"
   xmlns:dc="http://purl.org/dc/elements/1.1/">
  <defs
     id="defs2" />
  <metadata
     id="metadata5">
    <rdf:RDF>
      <cc:Work
         rdf:about="">
        <dc:format>image/svg+xml</dc:format>
        <dc:type
           rdf:resource="http://purl.org/dc/dcmitype/StillImage" />
      </cc:Work>
    </rdf:RDF>
  </metadata>
  <g
     id="layer1"
     transform="translate(-245.97637,-59.398634)">
    <path
       style="color:#000000;fill:#ffffff;stroke-linecap:round;stroke-linejoin:round;-inkscape-stroke:none"
       d="m 265.82031,59.398437 a 19.84375,19.84375 0 0 0 -19.84375,19.84375 V 211.5332 a 19.845734,19.845734 0 0 0 33.875,14.03321 l 52.11328,-52.11524 52.11524,52.11524 a 19.84375,19.84375 0 0 0 28.0625,0 19.84375,19.84375 0 0 0 0,-28.06446 L 360.0293,145.38867 412.14258,93.273437 a 19.84375,19.84375 0 0 0 0,-28.0625 19.84375,19.84375 0 0 0 -28.0625,0 l -66.14649,66.146483 -32.26953,32.26953 V 79.242187 a 19.84375,19.84375 0 0 0 -19.84375,-19.84375 z"
       id="path1003" />
  </g>
</svg>
